<?xml version="1.0" encoding="utf-8"?>
<!-- Generator: Adobe Illustrator 26.0.2, SVG Export Plug-In . SVG Version: 6.00 Build 0)  -->
<svg version="1.1" id="Layer_1" xmlns="http://www.w3.org/2000/svg" xmlns:xlink="http://www.w3.org/1999/xlink" x="0px" y="0px"
	 viewBox="0 0 181.4 181.4" style="enable-background:new 0 0 181.4 181.4;" xml:space="preserve">
<style type="text/css">
	.st0{fill-rule:evenodd;clip-rule:evenodd;}
	.st1{fill:none;stroke:#000000;stroke-width:11.0238;}
</style>
<path d="M176.3,93.5c-0.1-0.2-0.2-0.4-0.3-0.5c-0.1-0.1-0.3-0.3-0.5-0.3c-0.2-0.1-0.4-0.1-0.6-0.1H162V71.4c0-0.2,0-0.4-0.1-0.6
	c-0.1-0.2-0.2-0.4-0.3-0.5c-0.1-0.1-0.3-0.3-0.5-0.3c-0.2-0.1-0.4-0.1-0.6-0.1h-38.6V48.9c0-0.2,0-0.4-0.1-0.6
	c-0.1-0.2-0.2-0.4-0.3-0.5c-0.1-0.1-0.3-0.3-0.5-0.3c-0.2-0.1-0.4-0.1-0.6-0.1H36.6c-0.2,0-0.4,0-0.6,0.1c-0.2,0.1-0.4,0.2-0.5,0.3
	s-0.3,0.3-0.4,0.5C35,48.5,35,48.7,35,48.9v11.3h-30v4.3h30V73H17.8v4.3H35v47.8c0,0.2,0,0.4,0.1,0.6s0.2,0.4,0.3,0.5
	c0.1,0.1,0.3,0.3,0.5,0.3c0.2,0.1,0.4,0.1,0.6,0.1h20.2l0.1,0.6c0.4,2.8,1.7,5.3,3.8,7.2c2.1,1.9,4.8,2.9,7.7,2.9
	c2.8,0,5.5-1,7.7-2.9s3.5-4.4,3.8-7.2l0.1-0.6H136l0.1,0.6c0.4,2.8,1.7,5.3,3.8,7.2c2.1,1.9,4.8,2.9,7.7,2.9c2.8,0,5.5-1,7.7-2.9
	s3.5-4.4,3.8-7.2l0.1-0.6h15.7c0.2,0,0.4,0,0.6-0.1c0.2-0.1,0.4-0.2,0.5-0.3s0.3-0.3,0.3-0.5s0.1-0.4,0.1-0.6v-31
	C176.5,93.9,176.4,93.7,176.3,93.5z M76.1,129c-0.6,1.5-1.7,2.8-3.1,3.8c-1.4,0.9-3,1.4-4.7,1.4c-2.2,0-4.4-0.9-5.9-2.5
	c-1.6-1.6-2.5-3.7-2.5-5.9h0c0-1.7,0.5-3.3,1.4-4.7c0.9-1.4,2.2-2.5,3.8-3.1c1.5-0.6,3.2-0.8,4.9-0.5c1.6,0.3,3.1,1.1,4.3,2.3
	c1.2,1.2,2,2.7,2.3,4.3C76.9,125.8,76.7,127.5,76.1,129z M118.7,123.5h-39l-0.1-0.5c-0.6-2.5-2.1-4.7-4.1-6.3
	c-2-1.6-4.6-2.5-7.1-2.5c-2.6,0-5.1,0.9-7.1,2.5c-2,1.6-3.5,3.8-4.1,6.3l-0.1,0.5H38.2l0-46.2h31.1V73H38.1l0-8.6h18.3v-4.3H38.1
	l0-9.7h80.5V123.5z M155.4,129c-0.6,1.5-1.7,2.8-3.1,3.8c-1.4,0.9-3,1.4-4.7,1.4c-2.2,0-4.4-0.9-5.9-2.5c-1.6-1.6-2.5-3.7-2.5-5.9h0
	c0-1.7,0.5-3.3,1.4-4.7c0.9-1.4,2.2-2.5,3.8-3.1c1.5-0.6,3.2-0.8,4.9-0.5c1.6,0.3,3.1,1.1,4.3,2.3c1.2,1.2,2,2.7,2.3,4.3
	C156.2,125.8,156,127.5,155.4,129z M173.3,123.6h-14.4l-0.1-0.5c-0.6-2.5-2-4.8-4.1-6.4c-2-1.6-4.6-2.5-7.2-2.5
	c-2.6,0-5.1,0.9-7.2,2.5c-2,1.6-3.5,3.9-4.1,6.4l-0.1,0.5h-14.3l0-50.6h37v21.1c0,0.4,0.2,0.8,0.5,1.1c0.3,0.3,0.7,0.5,1.1,0.5h12.8
	V123.6z"/>
</svg>
