<?xml version="1.0" encoding="utf-8"?>
<!-- Generator: Adobe Illustrator 26.0.2, SVG Export Plug-In . SVG Version: 6.00 Build 0)  -->
<svg version="1.1" id="Layer_1" xmlns="http://www.w3.org/2000/svg" xmlns:xlink="http://www.w3.org/1999/xlink" x="0px" y="0px"
	 viewBox="0 0 181.4 181.4" style="enable-background:new 0 0 181.4 181.4;" xml:space="preserve">
<style type="text/css">
	.st0{fill-rule:evenodd;clip-rule:evenodd;}
	.st1{fill:none;stroke:#000000;stroke-width:11.0238;}
</style>
<g>
	<path d="M144,68.5h-20.1V48.4c0-8.4-3.3-16.3-9.2-22.3c-6-6-13.9-9.2-22.3-9.2S75.9,20.1,70,26.1c-6,6-9.2,13.9-9.2,22.3v20.1H40.6
		c-1.1,0-2,0.9-2,2v66.4c0,4.5,1.7,8.7,4.9,11.9c3.2,3.2,7.4,4.9,11.9,4.9h73.8c4.5,0,8.7-1.7,11.9-4.9c3.2-3.2,4.9-7.4,4.9-11.9
		V70.5C146,69.4,145.1,68.5,144,68.5z M64.7,48.4c0-7.4,2.9-14.3,8.1-19.5c5.2-5.2,12.1-8.1,19.5-8.1s14.3,2.9,19.5,8.1
		c5.2,5.2,8.1,12.1,8.1,19.5v20.1H64.7V48.4z M142,136.9c0,3.4-1.3,6.6-3.7,9c-2.4,2.4-5.6,3.7-9,3.7H55.4c-3.4,0-6.6-1.3-9-3.7
		c-2.4-2.4-3.7-5.6-3.7-9V72.5H142V136.9z"/>
	<path d="M110.7,124.1c7.2,0,13.1-5.9,13.1-13.1S117.9,98,110.7,98s-13.1,5.9-13.1,13.1S103.5,124.1,110.7,124.1z M110.7,102
		c5,0,9.1,4.1,9.1,9.1s-4.1,9.1-9.1,9.1s-9.1-4.1-9.1-9.1S105.7,102,110.7,102z"/>
</g>
</svg>
