<?xml version="1.0" encoding="utf-8"?>
<!-- Generator: Adobe Illustrator 26.0.2, SVG Export Plug-In . SVG Version: 6.00 Build 0)  -->
<svg version="1.1" id="Layer_1" xmlns="http://www.w3.org/2000/svg" xmlns:xlink="http://www.w3.org/1999/xlink" x="0px" y="0px"
	 viewBox="0 0 181.4 181.4" style="enable-background:new 0 0 181.4 181.4;" xml:space="preserve">
<style type="text/css">
	.st0{fill-rule:evenodd;clip-rule:evenodd;}
	.st1{fill:none;stroke:#000000;stroke-width:11.0238;}
</style>
<path d="M90.7,12.3c-6.5,0-12.9,1.4-18.9,4.2c-6,2.7-11.3,6.7-15.7,11.8c-4.4,5-7.8,10.9-9.9,17.4c-2.1,6.4-2.9,13.3-2.3,20.1
	c1,11.8,6,20.6,12.7,29.8c15.7,22,24.9,48.4,34.2,73.8c9-24.9,18-50.6,33.2-72.4c6-8.5,11.3-16.2,13.1-26.8
	c1.2-7.1,0.9-14.3-0.9-21.3c-1.8-6.9-5-13.4-9.4-18.9c-4.4-5.5-9.9-9.9-16.1-13C104.3,13.8,97.6,12.2,90.7,12.3L90.7,12.3z
	 M90.7,76.1c-3,0-5.9-0.9-8.3-2.6c-2.5-1.7-4.4-4.2-5.5-7s-1.4-6-0.9-9.1c0.6-3,2-5.8,4.1-8c2.1-2.2,4.8-3.7,7.7-4.3
	c2.9-0.6,5.9-0.3,8.7,0.9c2.7,1.2,5.1,3.2,6.7,5.8c1.6,2.6,2.5,5.6,2.5,8.7c0,4.2-1.6,8.2-4.4,11.1C98.5,74.5,94.7,76.1,90.7,76.1z"
	/>
</svg>
