<?xml version="1.0" encoding="utf-8"?>
<!-- Generator: Adobe Illustrator 26.0.2, SVG Export Plug-In . SVG Version: 6.00 Build 0)  -->
<svg version="1.1" id="Layer_1" xmlns="http://www.w3.org/2000/svg" xmlns:xlink="http://www.w3.org/1999/xlink" x="0px" y="0px"
	 viewBox="0 0 181.4 181.4" style="enable-background:new 0 0 181.4 181.4;" xml:space="preserve">
<style type="text/css">
	.st0{fill-rule:evenodd;clip-rule:evenodd;}
	.st1{fill:none;stroke:#000000;stroke-width:11.0238;}
</style>
<g>
	<path d="M72.7,29.3c11.6-4.1,24-4.5,35.8-1.2C120,31.4,132,39.4,139.8,49c0,0,0.1,0.1,0.1,0.1h-23.7c-1.1,0-2,0.9-2,2s0.9,2,2,2
		h27.2c1.1,0,2-0.9,2-2V23.9c0-1.1-0.9-2-2-2s-2,0.9-2,2v20.7c-8.3-9.5-20-17-31.7-20.3c-12.6-3.6-25.8-3.1-38.2,1.2
		C59,29.9,48.5,37.9,40.9,48.6C33.3,59.3,29.3,71.9,29.3,85c0,1.1,0.9,2,2,2c0,0,0,0,0,0c1.1,0,2-0.9,2-2c0-12.3,3.7-24.1,10.8-34.1
		C51.2,40.9,61.1,33.4,72.7,29.3z"/>
	<path d="M153.5,83L153.5,83c-1.1,0-2,0.9-2,2c0,12.3-3.7,24.1-10.8,34.1c-7.1,10-17,17.5-28.6,21.6c-11.6,4.1-24,4.5-35.8,1.2
		C65.4,138.8,54,131,45.8,121h22.8c1.1,0,2-0.9,2-2s-0.9-2-2-2H41.5c-1.1,0-2,0.9-2,2v27.2c0,1.1,0.9,2,2,2s2-0.9,2-2v-21.7
		c8.6,10.2,20.4,18.2,31.7,21.4c5.7,1.6,11.4,2.4,17.2,2.4c7.1,0,14.2-1.2,21-3.6c12.4-4.4,22.9-12.4,30.5-23.1
		c7.6-10.7,11.6-23.3,11.6-36.4C155.5,83.9,154.6,83,153.5,83z"/>
	<path d="M104,62c-0.4-0.4-0.9-0.6-1.4-0.6H82.2c-0.5,0-1,0.2-1.4,0.6L70.6,72.1c-0.4,0.4-0.6,1-0.6,1.6c0,0,0,0.1,0,0.1v25.4
		c0,0.9,0.2,1.9,0.5,2.7c0.4,0.9,0.9,1.7,1.5,2.3c0.7,0.7,1.4,1.2,2.3,1.5c0.8,0.3,1.7,0.5,2.6,0.5c0,0,0.1,0,0.1,0h30.5
		c1.9,0,3.7-0.7,5-2.1c1.3-1.3,2.1-3.1,2.1-5V73.8c0,0,0-0.1,0-0.1c0-0.6-0.2-1.1-0.6-1.6L104,62z M83.1,65.4h18.7l6.2,6.2H76.9
		L83.1,65.4z M110.8,99.3c0,0.8-0.3,1.6-0.9,2.2c-0.6,0.6-1.4,0.9-2.2,0.9H77.1c-0.4,0-0.8-0.1-1.2-0.2c-0.4-0.2-0.7-0.4-1-0.7
		c-0.3-0.3-0.5-0.6-0.7-1c-0.2-0.4-0.2-0.8-0.2-1.2V75.8h36.7V99.3z"/>
</g>
</svg>
