<?xml version="1.0" encoding="utf-8"?>
<!-- Generator: Adobe Illustrator 26.0.2, SVG Export Plug-In . SVG Version: 6.00 Build 0)  -->
<svg version="1.1" id="Layer_1" xmlns="http://www.w3.org/2000/svg" xmlns:xlink="http://www.w3.org/1999/xlink" x="0px" y="0px"
	 viewBox="0 0 181.4 181.4" style="enable-background:new 0 0 181.4 181.4;" xml:space="preserve">
<style type="text/css">
	.st0{fill-rule:evenodd;clip-rule:evenodd;}
	.st1{fill:none;stroke:#000000;stroke-width:11.0238;}
</style>
<path class="st0" d="M141.9,52.7h-35L119,36.4c2.2-3,1.2-6.9-2.4-8.8c-3.5-1.9-8.2-1-10.4,2l-15.6,21l-15.6-21
	c-2.2-3-6.9-3.9-10.4-2c-3.5,1.9-4.6,5.8-2.4,8.8l12.1,16.3h-35c-8.1,0-14.6,5.9-14.6,13.2v13.2c0,4.9,2.9,9.1,7.3,11.4v1.8v46.1
	c0,10.9,9.8,19.7,21.9,19.7h73.1c12.1,0,21.9-8.8,21.9-19.7V92.2v-1.8c4.4-2.3,7.3-6.5,7.3-11.4V65.9
	C156.5,58.6,150,52.7,141.9,52.7z M83.4,144.9H54.1c-4,0-7.3-2.9-7.3-6.6v-32.9V92.2h14.6h21.9V144.9z M83.4,79.1H54.1h-7.3h-7.3
	V65.9h14.6h29.3V79.1z M134.6,105.4v32.9c0,3.6-3.3,6.6-7.3,6.6H98V92.2H120h14.6V105.4z M141.9,79.1h-7.3h-7.3H98V65.9h29.3h14.6
	V79.1z"/>
</svg>
