<?xml version="1.0" encoding="utf-8"?>
<!-- Generator: Adobe Illustrator 26.0.2, SVG Export Plug-In . SVG Version: 6.00 Build 0)  -->
<svg version="1.1" id="Layer_1" xmlns="http://www.w3.org/2000/svg" xmlns:xlink="http://www.w3.org/1999/xlink" x="0px" y="0px"
	 viewBox="0 0 181.4 181.4" style="enable-background:new 0 0 181.4 181.4;" xml:space="preserve">
<style type="text/css">
	.st0{fill-rule:evenodd;clip-rule:evenodd;}
	.st1{fill:none;stroke:#000000;stroke-width:11.0238;}
</style>
<path d="M138.5,126.7c-4.5-2-9.5-2.2-14.2-0.5c-2.1,0.8-4.1,1.9-5.8,3.3L60.7,93.9c0.2-1.1,0.3-2.1,0.3-3.2c0-1.1-0.1-2.2-0.3-3.2
	l57.7-35.5c1.7,1.4,3.7,2.6,5.9,3.3c2.1,0.7,4.3,1.1,6.4,1.1c2.6,0,5.3-0.5,7.7-1.6c4.5-2,8.1-5.5,10.2-10c2.1-4.5,2.6-9.6,1.3-14.4
	c-1.2-4.8-4.1-9-8.1-11.8c-4.1-2.8-9-4-13.8-3.3c-4.8,0.7-9.2,3.2-12.4,7c-3.1,3.8-4.8,8.6-4.8,13.6c0,1.1,0.1,2.2,0.3,3.2
	L53.4,74.5c-1.4-1.1-2.9-2.1-4.6-2.8c-4.1-1.8-8.6-2.1-12.9-0.9c-4.2,1.2-8,3.8-10.6,7.5c-2.6,3.6-4,8-4.1,12.5c0,0,0,0,0,0
	c0,4.5,1.4,8.9,4.1,12.5c2.6,3.6,6.4,6.3,10.6,7.5c1.7,0.5,3.5,0.7,5.2,0.7c2.6,0,5.3-0.5,7.7-1.6c1.7-0.7,3.2-1.7,4.6-2.8
	l57.7,35.5c-0.2,1.1-0.3,2.1-0.3,3.2c0,5,1.7,9.8,4.8,13.6c3.2,3.8,7.6,6.3,12.4,7c0.9,0.1,1.8,0.2,2.7,0.2c3.9,0,7.8-1.2,11.1-3.5
	c4-2.8,6.9-7,8.1-11.8c1.2-4.8,0.8-9.9-1.3-14.4C146.5,132.2,142.9,128.6,138.5,126.7z"/>
</svg>
