<svg width="38" height="28" viewBox="0 0 38 28" fill="none" xmlns="http://www.w3.org/2000/svg">
<path d="M8.86335 27.6577C5.85419 27.6577 3.61099 26.6586 2.13377 24.6603C0.711256 22.662 0 20.3398 0 17.6934C0 15.2631 0.519764 12.9408 1.55929 10.7265C2.65353 8.45822 4.04869 6.48697 5.74476 4.81275C7.49555 3.08453 9.38311 1.78837 11.4075 0.924255L17.0702 5.05579C14.827 5.97391 12.8026 7.21607 10.9971 8.78227C9.24633 10.2945 8.01531 11.9147 7.30406 13.6429L7.7144 13.8859C8.04267 13.6699 8.3983 13.5079 8.78128 13.3999C9.21898 13.2918 9.79345 13.2378 10.5047 13.2378C11.9819 13.2378 13.4318 13.7779 14.8543 14.858C16.3315 15.9382 17.0702 17.6124 17.0702 19.8807C17.0702 22.419 16.2221 24.3633 14.526 25.7134C12.8847 27.0096 10.9971 27.6577 8.86335 27.6577ZM28.97 27.6577C25.9609 27.6577 23.7177 26.6586 22.2404 24.6603C20.8179 22.662 20.1067 20.3398 20.1067 17.6934C20.1067 15.2631 20.6264 12.9408 21.666 10.7265C22.7602 8.45822 24.1554 6.48697 25.8514 4.81275C27.6022 3.08453 29.4898 1.78837 31.5141 0.924255L37.1768 5.05579C34.9336 5.97391 32.9093 7.21607 31.1038 8.78227C29.353 10.2945 28.122 11.9147 27.4107 13.6429L27.8211 13.8859C28.1493 13.6699 28.505 13.5079 28.8879 13.3999C29.3256 13.2918 29.9001 13.2378 30.6114 13.2378C32.0886 13.2378 33.5385 13.7779 34.961 14.858C36.4382 15.9382 37.1768 17.6124 37.1768 19.8807C37.1768 22.419 36.3288 24.3633 34.6327 25.7134C32.9913 27.0096 31.1038 27.6577 28.97 27.6577Z" fill="black"/>
</svg>
