<svg width="0" height="0" class="hidden">
  <symbol version="1.1" id="icons_return" xmlns="http://www.w3.org/2000/svg" xmlns:xlink="http://www.w3.org/1999/xlink" x="0px" y="0px" xml:space="preserve" viewBox="0 0 181.4 181.4">
    <g>
      <path d="M72.7,29.3c11.6-4.1,24-4.5,35.8-1.2C120,31.4,132,39.4,139.8,49c0,0,0.1,0.1,0.1,0.1h-23.7c-1.1,0-2,0.9-2,2s0.9,2,2,2
		h27.2c1.1,0,2-0.9,2-2V23.9c0-1.1-0.9-2-2-2s-2,0.9-2,2v20.7c-8.3-9.5-20-17-31.7-20.3c-12.6-3.6-25.8-3.1-38.2,1.2
		C59,29.9,48.5,37.9,40.9,48.6C33.3,59.3,29.3,71.9,29.3,85c0,1.1,0.9,2,2,2c0,0,0,0,0,0c1.1,0,2-0.9,2-2c0-12.3,3.7-24.1,10.8-34.1
		C51.2,40.9,61.1,33.4,72.7,29.3z"></path>
      <path d="M153.5,83L153.5,83c-1.1,0-2,0.9-2,2c0,12.3-3.7,24.1-10.8,34.1c-7.1,10-17,17.5-28.6,21.6c-11.6,4.1-24,4.5-35.8,1.2
		C65.4,138.8,54,131,45.8,121h22.8c1.1,0,2-0.9,2-2s-0.9-2-2-2H41.5c-1.1,0-2,0.9-2,2v27.2c0,1.1,0.9,2,2,2s2-0.9,2-2v-21.7
		c8.6,10.2,20.4,18.2,31.7,21.4c5.7,1.6,11.4,2.4,17.2,2.4c7.1,0,14.2-1.2,21-3.6c12.4-4.4,22.9-12.4,30.5-23.1
		c7.6-10.7,11.6-23.3,11.6-36.4C155.5,83.9,154.6,83,153.5,83z"></path>
      <path d="M104,62c-0.4-0.4-0.9-0.6-1.4-0.6H82.2c-0.5,0-1,0.2-1.4,0.6L70.6,72.1c-0.4,0.4-0.6,1-0.6,1.6c0,0,0,0.1,0,0.1v25.4
		c0,0.9,0.2,1.9,0.5,2.7c0.4,0.9,0.9,1.7,1.5,2.3c0.7,0.7,1.4,1.2,2.3,1.5c0.8,0.3,1.7,0.5,2.6,0.5c0,0,0.1,0,0.1,0h30.5
		c1.9,0,3.7-0.7,5-2.1c1.3-1.3,2.1-3.1,2.1-5V73.8c0,0,0-0.1,0-0.1c0-0.6-0.2-1.1-0.6-1.6L104,62z M83.1,65.4h18.7l6.2,6.2H76.9
		L83.1,65.4z M110.8,99.3c0,0.8-0.3,1.6-0.9,2.2c-0.6,0.6-1.4,0.9-2.2,0.9H77.1c-0.4,0-0.8-0.1-1.2-0.2c-0.4-0.2-0.7-0.4-1-0.7
		c-0.3-0.3-0.5-0.6-0.7-1c-0.2-0.4-0.2-0.8-0.2-1.2V75.8h36.7V99.3z"></path>
    </g>
  </symbol>
  <symbol version="1.1" id="icons_share" xmlns="http://www.w3.org/2000/svg" xmlns:xlink="http://www.w3.org/1999/xlink" x="0px" y="0px" xml:space="preserve" viewBox="0 0 181.4 181.4">
    <path d="M138.5,126.7c-4.5-2-9.5-2.2-14.2-0.5c-2.1,0.8-4.1,1.9-5.8,3.3L60.7,93.9c0.2-1.1,0.3-2.1,0.3-3.2c0-1.1-0.1-2.2-0.3-3.2
	l57.7-35.5c1.7,1.4,3.7,2.6,5.9,3.3c2.1,0.7,4.3,1.1,6.4,1.1c2.6,0,5.3-0.5,7.7-1.6c4.5-2,8.1-5.5,10.2-10c2.1-4.5,2.6-9.6,1.3-14.4
	c-1.2-4.8-4.1-9-8.1-11.8c-4.1-2.8-9-4-13.8-3.3c-4.8,0.7-9.2,3.2-12.4,7c-3.1,3.8-4.8,8.6-4.8,13.6c0,1.1,0.1,2.2,0.3,3.2
	L53.4,74.5c-1.4-1.1-2.9-2.1-4.6-2.8c-4.1-1.8-8.6-2.1-12.9-0.9c-4.2,1.2-8,3.8-10.6,7.5c-2.6,3.6-4,8-4.1,12.5c0,0,0,0,0,0
	c0,4.5,1.4,8.9,4.1,12.5c2.6,3.6,6.4,6.3,10.6,7.5c1.7,0.5,3.5,0.7,5.2,0.7c2.6,0,5.3-0.5,7.7-1.6c1.7-0.7,3.2-1.7,4.6-2.8
	l57.7,35.5c-0.2,1.1-0.3,2.1-0.3,3.2c0,5,1.7,9.8,4.8,13.6c3.2,3.8,7.6,6.3,12.4,7c0.9,0.1,1.8,0.2,2.7,0.2c3.9,0,7.8-1.2,11.1-3.5
	c4-2.8,6.9-7,8.1-11.8c1.2-4.8,0.8-9.9-1.3-14.4C146.5,132.2,142.9,128.6,138.5,126.7z"></path>
  </symbol>
  <symbol version="1.1" id="icons_shipping" xmlns="http://www.w3.org/2000/svg" xmlns:xlink="http://www.w3.org/1999/xlink" x="0px" y="0px" xml:space="preserve" viewBox="0 0 181.4 181.4">
    <path d="M176.3,93.5c-0.1-0.2-0.2-0.4-0.3-0.5c-0.1-0.1-0.3-0.3-0.5-0.3c-0.2-0.1-0.4-0.1-0.6-0.1H162V71.4c0-0.2,0-0.4-0.1-0.6
	c-0.1-0.2-0.2-0.4-0.3-0.5c-0.1-0.1-0.3-0.3-0.5-0.3c-0.2-0.1-0.4-0.1-0.6-0.1h-38.6V48.9c0-0.2,0-0.4-0.1-0.6
	c-0.1-0.2-0.2-0.4-0.3-0.5c-0.1-0.1-0.3-0.3-0.5-0.3c-0.2-0.1-0.4-0.1-0.6-0.1H36.6c-0.2,0-0.4,0-0.6,0.1c-0.2,0.1-0.4,0.2-0.5,0.3
	s-0.3,0.3-0.4,0.5C35,48.5,35,48.7,35,48.9v11.3h-30v4.3h30V73H17.8v4.3H35v47.8c0,0.2,0,0.4,0.1,0.6s0.2,0.4,0.3,0.5
	c0.1,0.1,0.3,0.3,0.5,0.3c0.2,0.1,0.4,0.1,0.6,0.1h20.2l0.1,0.6c0.4,2.8,1.7,5.3,3.8,7.2c2.1,1.9,4.8,2.9,7.7,2.9
	c2.8,0,5.5-1,7.7-2.9s3.5-4.4,3.8-7.2l0.1-0.6H136l0.1,0.6c0.4,2.8,1.7,5.3,3.8,7.2c2.1,1.9,4.8,2.9,7.7,2.9c2.8,0,5.5-1,7.7-2.9
	s3.5-4.4,3.8-7.2l0.1-0.6h15.7c0.2,0,0.4,0,0.6-0.1c0.2-0.1,0.4-0.2,0.5-0.3s0.3-0.3,0.3-0.5s0.1-0.4,0.1-0.6v-31
	C176.5,93.9,176.4,93.7,176.3,93.5z M76.1,129c-0.6,1.5-1.7,2.8-3.1,3.8c-1.4,0.9-3,1.4-4.7,1.4c-2.2,0-4.4-0.9-5.9-2.5
	c-1.6-1.6-2.5-3.7-2.5-5.9h0c0-1.7,0.5-3.3,1.4-4.7c0.9-1.4,2.2-2.5,3.8-3.1c1.5-0.6,3.2-0.8,4.9-0.5c1.6,0.3,3.1,1.1,4.3,2.3
	c1.2,1.2,2,2.7,2.3,4.3C76.9,125.8,76.7,127.5,76.1,129z M118.7,123.5h-39l-0.1-0.5c-0.6-2.5-2.1-4.7-4.1-6.3
	c-2-1.6-4.6-2.5-7.1-2.5c-2.6,0-5.1,0.9-7.1,2.5c-2,1.6-3.5,3.8-4.1,6.3l-0.1,0.5H38.2l0-46.2h31.1V73H38.1l0-8.6h18.3v-4.3H38.1
	l0-9.7h80.5V123.5z M155.4,129c-0.6,1.5-1.7,2.8-3.1,3.8c-1.4,0.9-3,1.4-4.7,1.4c-2.2,0-4.4-0.9-5.9-2.5c-1.6-1.6-2.5-3.7-2.5-5.9h0
	c0-1.7,0.5-3.3,1.4-4.7c0.9-1.4,2.2-2.5,3.8-3.1c1.5-0.6,3.2-0.8,4.9-0.5c1.6,0.3,3.1,1.1,4.3,2.3c1.2,1.2,2,2.7,2.3,4.3
	C156.2,125.8,156,127.5,155.4,129z M173.3,123.6h-14.4l-0.1-0.5c-0.6-2.5-2-4.8-4.1-6.4c-2-1.6-4.6-2.5-7.2-2.5
	c-2.6,0-5.1,0.9-7.2,2.5c-2,1.6-3.5,3.9-4.1,6.4l-0.1,0.5h-14.3l0-50.6h37v21.1c0,0.4,0.2,0.8,0.5,1.1c0.3,0.3,0.7,0.5,1.1,0.5h12.8
	V123.6z"></path>
  </symbol>
  <symbol version="1.1" id="icons_24" xmlns="http://www.w3.org/2000/svg" xmlns:xlink="http://www.w3.org/1999/xlink" x="0px" y="0px" xml:space="preserve" viewBox="0 0 181.4 181.4">
    <path d="M31.9,107.8c0-0.4,0.1-0.9,0.3-1.2c0.2-0.4,0.5-0.7,0.8-1c11.3-8.2,15.2-12,15.2-16.1c0-0.7-0.2-1.4-0.5-2
	c-0.3-0.6-0.7-1.2-1.3-1.6c-0.5-0.4-1.2-0.7-1.8-0.9c-0.7-0.2-1.4-0.2-2-0.1c-2.4,0-4.8,0.8-6.7,2.3c-0.4,0.3-0.9,0.5-1.4,0.5
	c-0.3,0-0.6-0.1-0.9-0.2c-0.3-0.1-0.5-0.3-0.8-0.5c-0.2-0.2-0.4-0.5-0.5-0.8c-0.1-0.3-0.2-0.6-0.2-0.9c0-0.3,0.1-0.7,0.2-1
	c0.1-0.3,0.4-0.6,0.6-0.8c2.7-2.2,6-3.3,9.4-3.3c1.3-0.2,2.7,0,3.9,0.3c1.3,0.4,2.5,1,3.5,1.9c1,0.9,1.8,1.9,2.4,3.1
	c0.6,1.2,0.9,2.5,1,3.8c0,5.6-5,10.4-13,16.5h11.3c0.3-0.1,0.7,0,1,0.1c0.3,0.1,0.6,0.3,0.9,0.5c0.3,0.2,0.5,0.5,0.6,0.8
	c0.1,0.3,0.2,0.6,0.2,1c0,0.3-0.1,0.7-0.2,1c-0.1,0.3-0.3,0.6-0.6,0.8c-0.3,0.2-0.6,0.4-0.9,0.5c-0.3,0.1-0.7,0.1-1,0.1H34.7
	c-0.4,0-0.7-0.1-1.1-0.2c-0.3-0.1-0.6-0.3-0.9-0.6c-0.3-0.3-0.5-0.6-0.6-0.9C32,108.6,31.9,108.2,31.9,107.8L31.9,107.8z"></path>
    <path d="M80.1,101.5c0,0.6-0.2,1.2-0.7,1.7c-0.4,0.4-1,0.7-1.6,0.7h-2v4.3c0.1,0.4,0,0.8-0.1,1.1c-0.1,0.4-0.3,0.7-0.5,1
	c-0.2,0.3-0.6,0.5-0.9,0.7c-0.3,0.2-0.7,0.2-1.1,0.2s-0.8-0.1-1.1-0.2c-0.3-0.2-0.7-0.4-0.9-0.7c-0.2-0.3-0.4-0.6-0.5-1
	c-0.1-0.4-0.1-0.7-0.1-1.1v-4.3H59.3c-0.8,0-1.6-0.3-2.1-0.9c-0.6-0.6-0.9-1.3-0.9-2.1c0-0.5,0.2-1.1,0.5-1.5l10.8-16.9
	c0.5-0.8,1.3-1.5,2.2-1.8c0.9-0.3,1.9-0.4,2.9-0.1c0.9,0.3,1.8,0.9,2.4,1.6c0.6,0.8,0.9,1.7,0.9,2.7V99H78c0.6,0,1.2,0.3,1.6,0.8
	C80,100.3,80.2,100.9,80.1,101.5z M70.7,99.2V85.4l-9.1,13.8H70.7z"></path>
    <path d="M175.4,69.5c-0.8-1.9-2-3.5-3.6-4.9l-0.9-0.9l-0.1-0.1c-1.2-1-2.1-2.4-2.8-3.8s-0.9-3.1-0.8-4.6l0-1.3
	c0.1-2.1-0.2-4.1-0.9-6c-0.7-1.9-1.9-3.7-3.3-5.1c-1.5-1.5-3.2-2.6-5.1-3.3c-1.9-0.7-3.9-1.1-6-1h-1.2l-0.1,0
	c-1.6,0.1-3.2-0.2-4.7-0.8s-2.8-1.6-3.9-2.8l-0.8-0.9c-1.4-1.5-3.1-2.8-5-3.6c-3.8-1.7-8.2-1.7-12,0c-1.9,0.8-3.5,2-4.9,3.5l-1,0.8
	l-0.2,0.2c-1.1,1.2-2.4,2.1-3.9,2.8c-1.5,0.6-3.1,0.9-4.7,0.8l-1.3,0c-2.1-0.1-4.1,0.2-6,1c-1.5,0.6-2.8,1.4-4,2.3H80.3V38
	c0-1.1-0.9-2-2-2s-2,0.9-2,2v3.6H35.1V38c0-1.1-0.9-2-2-2s-2,0.9-2,2v3.6H10.6c-1.1,0-2,0.9-2,2v79c0,3.5,1.4,6.9,3.9,9.4
	c2.5,2.5,5.8,3.9,9.4,3.9h67.7c3.5,0,6.9-1.4,9.4-3.9c2.5-2.5,3.9-5.9,3.9-9.4v-10.9c1.8,0.6,3.6,0.9,5.5,0.8h1.1
	c-0.1,0.3-0.2,0.6-0.2,0.9V158c0,0.7,0.4,1.4,1.1,1.8c0.6,0.3,1.4,0.3,2.1-0.1l17.9-12l17.9,12c0.3,0.2,0.7,0.3,1.1,0.3
	c0.3,0,0.6-0.1,0.9-0.2c0.7-0.3,1.1-1,1.1-1.8v-44.4c0-0.4-0.1-0.8-0.3-1.1l1,0c2,0.1,4.1-0.2,6-0.9c1.9-0.7,3.7-1.9,5.1-3.3
	c1.5-1.5,2.6-3.2,3.3-5.1c0.7-1.9,1-3.9,0.9-6v-1.3l0-0.1c-0.1-1.6,0.2-3.2,0.8-4.6c0.6-1.5,1.6-2.8,2.8-3.9l0.9-0.8
	c1.5-1.4,2.8-3.1,3.6-4.9c0.8-1.9,1.3-3.9,1.3-6C176.7,73.4,176.3,71.4,175.4,69.5z M12.6,45.7h18.6v3.6c0,1.1,0.9,2,2,2s2-0.9,2-2
	v-3.6h41.1v3.6c0,1.1,0.9,2,2,2s2-0.9,2-2v-3.6h14.7c-0.4,0.7-0.8,1.4-1,2.1c-0.7,1.9-1.1,3.9-1,6V55l0,0.1c0.1,1.6-0.2,3.2-0.8,4.6
	c-0.6,1.5-1.5,2.8-2.7,3.9l-0.6,0.6H12.6V45.7z M96.1,129.2c-1.7,1.7-4.1,2.7-6.6,2.7H21.8c-2.5,0-4.8-1-6.6-2.7
	c-1.7-1.7-2.7-4.1-2.7-6.6V68.3h72.9c-0.2,0.4-0.4,0.8-0.6,1.2c-0.8,1.9-1.3,3.9-1.3,6c0,2.1,0.4,4.1,1.3,6c0.8,1.9,2.1,3.6,3.6,5
	l0.9,0.8c1.2,1.1,2.1,2.4,2.7,3.9c0.6,1.5,0.9,3.1,0.8,4.6l0,1.4c-0.1,2.1,0.2,4.1,1,6c0.7,1.9,1.9,3.7,3.3,5.1
	c0.5,0.5,1,0.9,1.6,1.4v13C98.9,125.1,97.9,127.5,96.1,129.2z M147.2,113.7v40.6l-15.9-10.6c-0.7-0.5-1.5-0.4-2.2,0l-15.9,10.6
	v-40.8c0-0.2,0-0.4-0.1-0.5c0.5,0.1,0.9,0.3,1.4,0.5c1.5,0.6,2.8,1.6,3.9,2.8l0.8,0.9c1.4,1.5,3.1,2.8,4.9,3.6
	c1.9,0.8,3.9,1.3,6,1.3s4.1-0.4,6-1.3c1.9-0.8,3.6-2.1,4.9-3.6l0.9-1c1.1-1.2,2.4-2.2,3.9-2.8c0.5-0.2,1-0.4,1.6-0.5
	C147.3,113.1,147.2,113.4,147.2,113.7z M171.8,79.9c-0.6,1.4-1.5,2.6-2.6,3.6l-0.9,0.8c-1.6,1.4-3,3.3-3.8,5.3
	c-0.8,2-1.2,4.2-1.1,6.4v1.3l0,0.1c0.1,1.5-0.1,3-0.7,4.4s-1.3,2.7-2.4,3.7c-1.1,1.1-2.3,1.9-3.7,2.4c-1.4,0.5-2.9,0.8-4.4,0.7
	l-1.4,0c-2.2-0.1-4.4,0.3-6.4,1.1c-2,0.8-3.9,2.2-5.3,3.8l-0.9,0.9c-1,1.1-2.2,2-3.6,2.6c-2.8,1.2-6,1.2-8.7,0
	c-1.4-0.6-2.6-1.5-3.6-2.6l-0.8-0.9c-1.5-1.6-3.3-2.9-5.3-3.8c-1.8-0.7-3.7-1.1-5.7-1.1c-0.2,0-0.5,0-0.7,0h-1.4l-0.1,0
	c-1.5,0.1-3-0.1-4.4-0.7c-1.4-0.5-2.7-1.3-3.7-2.4s-1.9-2.3-2.4-3.7c-0.5-1.4-0.8-2.9-0.7-4.4l0-1.4c0.1-2.1-0.3-4.3-1.1-6.3
	c-0.8-2-2.1-3.8-3.8-5.3l-1-0.8c-1.1-1-2-2.2-2.6-3.6c-0.6-1.4-0.9-2.8-0.9-4.4c0-1.5,0.3-3,0.9-4.4c0.6-1.4,1.5-2.6,2.7-3.6l1-0.9
	c1.6-1.5,2.9-3.3,3.7-5.3c0.8-2,1.2-4.2,1.1-6.3v-1.2l0-0.1c-0.1-1.5,0.2-3,0.7-4.4c0.5-1.4,1.4-2.7,2.4-3.7
	c1.1-1.1,2.3-1.9,3.7-2.4c1.4-0.5,2.9-0.8,4.4-0.7l1.3,0c2.2,0.1,4.4-0.3,6.4-1.1c2-0.8,3.8-2.1,5.2-3.7l1-0.8l0.2-0.2
	c1-1.1,2.2-2,3.6-2.6c2.8-1.2,6-1.2,8.7,0c1.4,0.6,2.6,1.5,3.6,2.6l0.8,0.9c1.5,1.6,3.3,3,5.3,3.8c2,0.8,4.2,1.2,6.4,1.1h1.2l0.1,0
	c1.5-0.1,3,0.2,4.4,0.7c1.4,0.5,2.7,1.4,3.7,2.4c1.1,1.1,1.9,2.3,2.4,3.7c0.5,1.4,0.8,2.9,0.7,4.4l0,1.3c-0.1,2.2,0.3,4.4,1.1,6.4
	c0.8,2,2.1,3.8,3.7,5.2l0.9,0.9l0.1,0.1c1.1,1,2,2.2,2.6,3.6c0.6,1.4,0.9,2.8,0.9,4.4C172.7,77,172.4,78.5,171.8,79.9z"></path>
    <path d="M123.9,90c-0.5,0-1-0.2-1.4-0.6l-6.3-6.3c-0.8-0.8-0.8-2,0-2.8c0.8-0.8,2-0.8,2.8,0l4.9,4.9l17.6-17.6c0.8-0.8,2-0.8,2.8,0
	c0.8,0.8,0.8,2,0,2.8l-19,19C125,89.8,124.5,90,123.9,90z"></path>
  </symbol>
  <symbol version="1.1" id="icons_arrow" xmlns="http://www.w3.org/2000/svg" xmlns:xlink="http://www.w3.org/1999/xlink" x="0px" y="0px" xml:space="preserve" viewBox="0 0 181.4 181.4">
    <path d="M60.1,164l71.7-71.7L60.1,20.7"></path>
  </symbol>
  <symbol version="1.1" id="icons_gift" xmlns="http://www.w3.org/2000/svg" xmlns:xlink="http://www.w3.org/1999/xlink" x="0px" y="0px" xml:space="preserve" viewBox="0 0 181.4 181.4">
    <path d="M141.9,52.7h-35L119,36.4c2.2-3,1.2-6.9-2.4-8.8c-3.5-1.9-8.2-1-10.4,2l-15.6,21l-15.6-21
	c-2.2-3-6.9-3.9-10.4-2c-3.5,1.9-4.6,5.8-2.4,8.8l12.1,16.3h-35c-8.1,0-14.6,5.9-14.6,13.2v13.2c0,4.9,2.9,9.1,7.3,11.4v1.8v46.1
	c0,10.9,9.8,19.7,21.9,19.7h73.1c12.1,0,21.9-8.8,21.9-19.7V92.2v-1.8c4.4-2.3,7.3-6.5,7.3-11.4V65.9
	C156.5,58.6,150,52.7,141.9,52.7z M83.4,144.9H54.1c-4,0-7.3-2.9-7.3-6.6v-32.9V92.2h14.6h21.9V144.9z M83.4,79.1H54.1h-7.3h-7.3
	V65.9h14.6h29.3V79.1z M134.6,105.4v32.9c0,3.6-3.3,6.6-7.3,6.6H98V92.2H120h14.6V105.4z M141.9,79.1h-7.3h-7.3H98V65.9h29.3h14.6
	V79.1z"></path>
  </symbol>
  <symbol version="1.1" id="icons_lock" xmlns="http://www.w3.org/2000/svg" xmlns:xlink="http://www.w3.org/1999/xlink" x="0px" y="0px" xml:space="preserve" viewBox="0 0 181.4 181.4">
    <g>
      <path d="M144,68.5h-20.1V48.4c0-8.4-3.3-16.3-9.2-22.3c-6-6-13.9-9.2-22.3-9.2S75.9,20.1,70,26.1c-6,6-9.2,13.9-9.2,22.3v20.1H40.6
		c-1.1,0-2,0.9-2,2v66.4c0,4.5,1.7,8.7,4.9,11.9c3.2,3.2,7.4,4.9,11.9,4.9h73.8c4.5,0,8.7-1.7,11.9-4.9c3.2-3.2,4.9-7.4,4.9-11.9
		V70.5C146,69.4,145.1,68.5,144,68.5z M64.7,48.4c0-7.4,2.9-14.3,8.1-19.5c5.2-5.2,12.1-8.1,19.5-8.1s14.3,2.9,19.5,8.1
		c5.2,5.2,8.1,12.1,8.1,19.5v20.1H64.7V48.4z M142,136.9c0,3.4-1.3,6.6-3.7,9c-2.4,2.4-5.6,3.7-9,3.7H55.4c-3.4,0-6.6-1.3-9-3.7
		c-2.4-2.4-3.7-5.6-3.7-9V72.5H142V136.9z"></path>
      <path d="M110.7,124.1c7.2,0,13.1-5.9,13.1-13.1S117.9,98,110.7,98s-13.1,5.9-13.1,13.1S103.5,124.1,110.7,124.1z M110.7,102
		c5,0,9.1,4.1,9.1,9.1s-4.1,9.1-9.1,9.1s-9.1-4.1-9.1-9.1S105.7,102,110.7,102z"></path>
    </g>
  </symbol>
  <symbol version="1.1" id="icons_map" xmlns="http://www.w3.org/2000/svg" xmlns:xlink="http://www.w3.org/1999/xlink" x="0px" y="0px" xml:space="preserve" viewBox="0 0 181.4 181.4">
    <path d="M90.7,12.3c-6.5,0-12.9,1.4-18.9,4.2c-6,2.7-11.3,6.7-15.7,11.8c-4.4,5-7.8,10.9-9.9,17.4c-2.1,6.4-2.9,13.3-2.3,20.1
	c1,11.8,6,20.6,12.7,29.8c15.7,22,24.9,48.4,34.2,73.8c9-24.9,18-50.6,33.2-72.4c6-8.5,11.3-16.2,13.1-26.8
	c1.2-7.1,0.9-14.3-0.9-21.3c-1.8-6.9-5-13.4-9.4-18.9c-4.4-5.5-9.9-9.9-16.1-13C104.3,13.8,97.6,12.2,90.7,12.3L90.7,12.3z
	 M90.7,76.1c-3,0-5.9-0.9-8.3-2.6c-2.5-1.7-4.4-4.2-5.5-7s-1.4-6-0.9-9.1c0.6-3,2-5.8,4.1-8c2.1-2.2,4.8-3.7,7.7-4.3
	c2.9-0.6,5.9-0.3,8.7,0.9c2.7,1.2,5.1,3.2,6.7,5.8c1.6,2.6,2.5,5.6,2.5,8.7c0,4.2-1.6,8.2-4.4,11.1C98.5,74.5,94.7,76.1,90.7,76.1z"></path>
  </symbol>
</svg>
